# Blender v2.91.0 OBJ File: ''
# www.blender.org
mtllib HeadYanki.mtl
o Cube.001_Cube.003
v -3.242074 0.050217 1.069640
v -1.599066 0.000000 1.071448
v -1.659973 0.135201 1.045705
v -1.659973 0.203917 1.001393
v -1.659973 0.356959 0.952853
v -1.659973 0.576685 0.954293
v -1.661376 0.939428 0.877623
v -1.661376 1.122073 0.786343
v -1.661376 1.675445 0.825359
v -1.661376 1.768394 0.090952
v -1.661376 1.724453 -0.196160
v -1.661376 1.602251 -0.396774
v -1.661376 1.388165 -0.621861
v -1.661376 1.209392 -0.723783
v -1.661376 1.048243 -0.735548
v -1.661376 0.763891 -0.682674
v -1.661376 0.571215 -0.862169
v -1.661376 0.409940 -1.025499
v -1.621488 0.038658 0.664778
v -1.659973 0.175750 0.551906
v -1.659973 0.366701 0.317207
v -1.659973 0.366701 -0.845603
v -1.511212 0.000000 1.071448
v -1.488790 0.135201 1.045705
v -1.488790 0.203917 1.001393
v -1.488790 0.356959 0.952853
v -1.488790 0.576685 0.954293
v -1.490193 0.939428 0.877623
v -1.490193 1.122073 0.786343
v -1.490193 1.251548 0.883195
v -1.490193 1.330642 0.918465
v -1.490193 1.447212 0.945960
v -1.490193 1.582966 0.929416
v -1.490193 1.675445 0.825359
v -1.490193 1.768394 0.090952
v -1.490193 1.724453 -0.196160
v -1.490193 1.602251 -0.396774
v -1.490193 1.388165 -0.621861
v -1.490193 1.209392 -0.723783
v -1.490193 1.048243 -0.735548
v -1.490193 0.763891 -0.682674
v -1.490193 0.571215 -0.862169
v -1.490193 0.409940 -1.025499
v -1.488790 0.038658 0.664778
v -1.488790 0.175750 0.551906
v -1.488790 0.366701 0.317207
v -1.488790 0.366701 -0.845603
v -1.937185 0.203789 1.001416
v -1.975670 0.356831 0.952876
v -1.975670 0.529884 0.930077
v -1.977073 0.892628 0.853406
v -1.977073 1.121945 0.786365
v -1.977073 1.251419 0.883218
v -1.977073 1.330513 0.918488
v -1.977073 1.447084 0.945983
v -1.977073 1.582838 0.929439
v -1.977073 1.675317 0.825382
v -1.977073 1.768265 0.090974
v -1.977073 1.724325 -0.196137
v -1.977073 1.602123 -0.396751
v -1.977073 1.388037 -0.621838
v -1.977073 1.209264 -0.723760
v -1.977073 1.048115 -0.735525
v -1.977073 0.763763 -0.682651
v -1.977073 0.571086 -0.862146
v -1.977073 0.409812 -1.025476
v -1.937185 0.175622 0.551929
v -1.975670 0.366573 0.317230
v -1.975670 0.366573 -0.845580
v -1.740300 0.950053 0.796792
v -1.898149 1.064648 0.763283
v -1.746013 1.060560 0.761601
v -1.893401 0.953439 0.793399
v -1.661291 1.322100 1.676968
v -1.661291 1.451575 1.773820
v -1.661291 1.530668 1.809091
v -1.661291 1.647239 1.836586
v -1.661291 1.782993 1.820042
v -1.661291 1.875472 1.715985
v -1.490108 1.322100 1.676968
v -1.490108 1.451575 1.773820
v -1.490108 1.530668 1.809091
v -1.490108 1.647239 1.836586
v -1.490108 1.782993 1.820042
v -1.490108 1.875472 1.715985
v -1.976988 1.321972 1.579217
v -1.976988 1.451446 1.676069
v -1.976988 1.530540 1.711339
v -1.976988 1.647111 1.738835
v -1.976988 1.782865 1.722290
v -1.976988 1.875344 1.618233
v -2.135052 0.529884 0.930077
v -2.136454 0.763763 -0.682651
v -2.136454 0.892628 0.853406
v -2.136454 1.121945 0.786365
v -2.136454 1.251419 0.883218
v -2.136454 1.330513 0.918488
v -2.136454 1.447084 0.945983
v -2.136454 1.582838 0.929439
v -2.136454 1.675317 0.825382
v -2.136454 1.768265 0.090974
v -2.136454 1.724325 -0.196137
v -2.136454 1.602123 -0.396751
v -2.136454 1.388037 -0.621838
v -2.136454 1.209264 -0.723760
v -2.136454 1.048115 -0.735525
v -1.659973 0.609502 1.109558
v -1.661376 0.972245 1.032888
v -1.488790 0.609502 1.109558
v -1.490193 0.972245 1.032888
vt 0.000000 0.000000
vt 0.000000 0.000000
vt 0.000000 0.000000
vt 0.000000 0.000000
vt 0.000000 0.000000
vt 0.000000 0.000000
vt 0.000000 0.000000
vt 0.000000 0.000000
vt 0.000000 0.000000
vt 0.000000 0.000000
vt 0.000000 0.000000
vt 0.000000 0.000000
vt 0.000000 0.000000
vt 0.000000 0.000000
vt 0.000000 0.000000
vt 0.000000 0.000000
vt 0.000000 0.000000
vt 0.000000 0.000000
vt 0.000000 0.000000
vt 0.000000 0.000000
vt 0.000000 0.000000
vt 0.000000 0.000000
vt 0.000000 0.000000
vt 0.000000 0.000000
vt 0.000000 0.000000
vt 0.000000 0.000000
vt 0.000000 0.000000
vt 0.000000 0.000000
vt 0.000000 0.000000
vt 0.000000 0.000000
vt 0.000000 0.000000
vt 0.000000 0.000000
vt 0.000000 0.000000
vt 0.000000 0.000000
vt 0.000000 0.000000
vt 0.000000 0.000000
vt 0.000000 0.000000
vt 0.000000 0.000000
vt 0.000000 0.000000
vt 0.000000 0.000000
vt 0.000000 0.000000
vt 0.000000 0.000000
vt 0.000000 0.000000
vt 0.000000 0.000000
vt 0.000000 0.000000
vt 0.000000 0.000000
vt 0.000000 0.000000
vt 0.000000 0.000000
vt 0.000000 0.000000
vt 0.000000 0.000000
vt 0.000000 0.000000
vt 0.000000 0.000000
vt 0.000000 0.000000
vt 0.000000 0.000000
vt 0.000000 0.000000
vt 0.000000 0.000000
vt 0.000000 0.000000
vt 0.000000 0.000000
vt 0.000000 0.000000
vt 0.000000 0.000000
vt 0.000000 0.000000
vt 0.000000 0.000000
vt 0.000000 0.000000
vt 0.000000 0.000000
vt 0.000000 0.000000
vt 0.000000 0.000000
vt 0.000000 0.000000
vt 0.000000 0.000000
vt 0.000000 0.000000
vt 0.000000 0.000000
vt 0.000000 0.000000
vt 0.000000 0.000000
vt 0.000000 0.000000
vt 0.000000 0.000000
vt 0.000000 0.000000
vt 0.000000 0.000000
vt 0.000000 0.000000
vt 0.000000 0.000000
vt 0.000000 0.000000
vt 0.000000 0.000000
vt 0.000000 0.000000
vt 0.000000 0.000000
vt 0.000000 0.000000
vt 0.000000 0.000000
vt 0.000000 0.000000
vt 0.000000 0.000000
vt 0.000000 0.000000
vt 0.000000 0.000000
vt 0.000000 0.000000
vt 0.000000 0.000000
vt 0.000000 0.000000
vt 0.000000 0.000000
vt 0.000000 0.000000
vt 0.000000 0.000000
vt 0.000000 0.000000
vt 0.000000 0.000000
vt 0.000000 0.000000
vt 0.000000 0.000000
vt 0.000000 0.000000
vt 0.000000 0.000000
vt 0.000000 0.000000
vt 0.000000 0.000000
vt 0.000000 0.000000
vt 0.000000 0.000000
vt 0.000000 0.000000
vt 0.000000 0.000000
vt 0.000000 0.000000
vt 0.000000 0.000000
vt 0.000000 0.000000
vn -0.0002 0.6356 0.7720
vn -0.9606 -0.2780 -0.0057
vn 1.0000 -0.0007 0.0002
vn 1.0000 0.0001 -0.0001
vn 0.0000 -0.7757 -0.6311
vn 0.0000 0.1870 0.9824
vn 0.0000 0.4953 -0.8687
vn -0.0354 -0.9723 0.2311
vn 0.0000 -1.0000 0.0000
vn 0.0000 0.5419 0.8404
vn 0.0000 0.0728 -0.9973
vn -1.0000 -0.0000 0.0001
vn 0.0000 -0.9723 -0.2337
vn 0.0000 0.3023 0.9532
vn 0.0000 -0.1828 -0.9831
vn -1.0000 -0.0001 0.0001
vn 0.0000 -0.0066 1.0000
vn 0.0000 0.6816 -0.7317
vn 0.0000 0.9921 0.1256
vn 0.0000 -0.9784 0.2068
vn 0.0000 0.7116 -0.7026
vn 0.0000 0.9885 -0.1513
vn 0.0000 0.4470 0.8945
vn 0.0000 -0.9955 -0.0946
vn 0.0000 0.8540 -0.5202
vn 0.0000 0.9757 -0.2191
vn 0.0000 -0.6356 -0.7720
vn 0.0000 0.7246 -0.6892
vn -0.0004 0.9921 0.1256
vn -0.9994 -0.0359 0.0012
vn -0.1051 0.2053 0.9731
vn -0.0003 0.7116 -0.7026
vn -0.0004 0.9885 -0.1513
vn -0.1086 0.8880 0.4468
vn -0.0004 0.8540 -0.5202
vn -0.0003 0.7246 -0.6892
vn 1.0000 -0.0001 -0.0001
vn 0.0003 -0.7757 -0.6311
vn -0.0003 0.4953 -0.8687
vn 0.0000 -0.9757 0.2191
vn 0.0004 -1.0000 0.0000
vn 0.0005 -0.9980 0.0625
vn -0.0001 0.0728 -0.9973
vn 1.0000 -0.0000 -0.0001
vn 0.0004 -0.9723 -0.2337
vn -0.0001 0.3023 0.9532
vn -0.0423 0.0543 0.9976
vn -0.0003 0.6816 -0.7317
vn 0.4360 0.2525 0.8638
vn -0.0767 0.3034 0.9498
vn 0.0002 -0.3734 0.9277
vn -0.4624 -0.8866 0.0012
vn 0.0015 0.2826 0.9592
vn -0.5819 0.3126 0.7508
vn 0.0000 -0.4073 0.9133
vn 0.0000 -0.2296 0.9733
vn 0.0000 0.1210 0.9927
vn 0.0000 0.7475 0.6643
vn 0.0000 -0.5990 0.8008
vn -0.2404 -0.5814 0.7773
vn -0.2720 -0.3919 0.8789
vn -0.2885 -0.2198 0.9319
vn -0.2938 0.1156 0.9488
vn -0.2018 0.7321 0.6506
vn -1.0000 0.0001 0.0001
vn 0.0354 0.9723 -0.2311
vn -1.0000 -0.0007 0.0001
vn 0.0000 0.2068 0.9784
vn 0.0000 -0.9896 -0.1435
vn 0.0000 0.2806 0.9598
vn -0.9553 -0.1772 0.2368
vn 0.9804 -0.0919 -0.1740
vn 0.9767 0.0493 -0.2089
vn -0.9706 -0.0981 0.2200
vn 0.0000 0.9696 -0.2446
vn 0.0321 0.6954 -0.7179
vn -0.8935 -0.4472 -0.0410
vn 0.2501 0.3493 0.9030
vn 0.0000 0.1306 0.9914
vn -1.0000 -0.0037 0.0008
vn 0.0000 0.9784 -0.2068
vn 1.0000 0.0037 -0.0008
usemtl Material.003
s off
f 67/1/1 19/2/1 20/3/1
f 3/4/2 4/5/2 20/3/2 19/2/2 2/6/2
f 24/7/3 23/8/3 44/9/3 45/10/3 46/11/3 47/12/3 43/13/3 42/14/3 41/15/3 40/16/3 39/17/3 38/18/3 37/19/3 36/20/3 35/21/3 34/22/3 33/23/3 32/24/3 31/25/3 30/26/3 29/27/3 28/28/3 27/29/3 26/30/3 25/31/3
f 29/27/4 30/26/4 81/32/4 80/33/4
f 20/3/5 21/34/5 46/11/5 45/10/5
f 3/4/6 2/6/6 23/8/6 24/7/6
f 14/35/7 13/36/7 38/18/7 39/17/7
f 52/37/8 8/38/8 74/39/8 86/40/8
f 21/34/9 22/41/9 47/12/9 46/11/9
f 4/5/10 3/4/10 24/7/10 25/31/10
f 15/42/11 14/35/11 39/17/11 40/16/11
f 55/43/12 54/44/12 88/45/12 89/46/12
f 22/41/13 18/47/13 43/13/13 47/12/13
f 5/48/14 4/5/14 25/31/14 26/30/14
f 16/49/15 15/42/15 40/16/15 41/15/15
f 54/44/16 53/50/16 87/51/16 88/45/16
f 6/52/17 5/48/17 26/30/17 27/29/17
f 17/53/18 16/49/18 41/15/18 42/14/18
f 10/54/19 9/55/19 34/22/19 35/21/19
f 6/52/20 27/29/20 109/56/20 107/57/20
f 18/47/21 17/53/21 42/14/21 43/13/21
f 11/58/22 10/54/22 35/21/22 36/20/22
f 8/38/23 7/59/23 28/28/23 29/27/23
f 2/6/24 19/2/24 44/9/24 23/8/24
f 12/60/25 11/58/25 36/20/25 37/19/25
f 34/22/26 9/55/26 79/61/26 85/62/26
f 19/2/27 20/3/27 45/10/27 44/9/27
f 13/36/28 12/60/28 37/19/28 38/18/28
f 9/55/29 10/54/29 58/63/29 57/64/29
f 67/1/30 48/65/30 49/66/30 50/67/30 64/68/30 65/69/30 66/70/30 69/71/30 68/72/30
f 6/52/31 7/59/31 51/73/31 50/67/31
f 17/53/32 18/47/32 66/70/32 65/69/32
f 10/54/33 11/58/33 59/74/33 58/63/33
f 7/59/34 70/75/34 73/76/34 51/73/34
f 11/58/35 12/60/35 60/77/35 59/74/35
f 53/50/16 52/37/16 86/40/16 87/51/16
f 12/60/36 13/36/36 61/78/36 60/77/36
f 33/23/37 34/22/37 85/62/37 84/79/37
f 21/34/38 20/3/38 67/1/38 68/72/38
f 13/36/39 14/35/39 62/80/39 61/78/39
f 8/38/40 29/27/40 80/33/40 74/39/40
f 22/41/41 21/34/41 68/72/41 69/71/41
f 20/3/42 4/5/42 48/65/42 67/1/42
f 14/35/43 15/42/43 63/81/43 62/80/43
f 32/24/44 33/23/44 84/79/44 83/82/44
f 18/47/45 22/41/45 69/71/45 66/70/45
f 4/5/46 5/48/46 49/66/46 48/65/46
f 15/42/15 16/49/15 64/68/15 63/81/15
f 31/25/44 32/24/44 83/82/44 82/83/44
f 5/48/47 6/52/47 50/67/47 49/66/47
f 16/49/48 17/53/48 65/69/48 64/68/48
f 51/73/49 73/76/49 71/84/49 52/37/49
f 48/65/50 2/6/50 3/4/50 4/5/50
f 52/37/51 71/84/51 72/85/51 8/38/51
f 57/64/19 58/63/19 101/86/19 100/87/19
f 67/1/52 19/2/52 2/6/52 48/65/52
f 72/85/53 71/84/53 73/76/53 70/75/53
f 72/85/54 70/75/54 7/59/54 8/38/54
f 76/88/55 75/89/55 81/32/55 82/83/55
f 77/90/56 76/88/56 82/83/56 83/82/56
f 78/91/57 77/90/57 83/82/57 84/79/57
f 79/61/58 78/91/58 84/79/58 85/62/58
f 75/89/59 74/39/59 80/33/59 81/32/59
f 74/39/60 75/89/60 87/51/60 86/40/60
f 75/89/61 76/88/61 88/45/61 87/51/61
f 76/88/62 77/90/62 89/46/62 88/45/62
f 77/90/63 78/91/63 90/92/63 89/46/63
f 78/91/64 79/61/64 91/93/64 90/92/64
f 56/94/12 55/43/12 89/46/12 90/92/12
f 30/26/44 31/25/44 82/83/44 81/32/44
f 57/64/65 56/94/65 90/92/65 91/93/65
f 9/55/66 57/64/66 91/93/66 79/61/66
f 93/95/67 92/96/67 94/97/67 95/98/67 96/99/67 97/100/67 98/101/67 99/102/67 100/87/67 101/86/67 102/103/67 103/104/67 104/105/67 105/106/67 106/107/67
f 50/67/68 51/73/68 94/97/68 92/96/68
f 64/68/69 50/67/69 92/96/69 93/95/69
f 58/63/22 59/74/22 102/103/22 101/86/22
f 51/73/70 52/37/70 95/98/70 94/97/70
f 59/74/25 60/77/25 103/104/25 102/103/25
f 52/37/59 53/50/59 96/99/59 95/98/59
f 60/77/28 61/78/28 104/105/28 103/104/28
f 53/50/55 54/44/55 97/100/55 96/99/55
f 61/78/7 62/80/7 105/106/7 104/105/7
f 54/44/56 55/43/56 98/101/56 97/100/56
f 62/80/11 63/81/11 106/107/11 105/106/11
f 55/43/57 56/94/57 99/102/57 98/101/57
f 63/81/15 64/68/15 93/95/15 106/107/15
f 56/94/58 57/64/58 100/87/58 99/102/58
f 96/99/71 95/98/71 86/40/71 87/51/71
f 89/46/72 98/101/72 99/102/72 100/87/72 91/93/72 90/92/72
f 89/46/73 88/45/73 97/100/73 98/101/73
f 97/100/74 96/99/74 87/51/74 88/45/74
f 52/37/75 95/98/75 86/40/75
f 93/95/76 64/68/76 65/69/76 66/70/76
f 68/72/77 92/96/77 93/95/77 66/70/77 69/71/77
f 92/96/78 48/65/78 49/66/78
f 92/96/79 49/66/79 50/67/79
f 108/108/68 107/57/68 109/56/68 110/109/68
f 7/59/80 6/52/80 107/57/80 108/108/80
f 28/28/81 7/59/81 108/108/81 110/109/81
f 27/29/82 28/28/82 110/109/82 109/56/82
o Cube.002_Cube.006
v 0.200278 0.050217 1.069640
v -1.442730 0.000000 1.071448
v -1.381823 0.135201 1.045705
v -1.381823 0.203917 1.001393
v -1.381823 0.356959 0.952853
v -1.381823 0.576685 0.954293
v -1.380421 0.939428 0.877623
v -1.380421 1.122073 0.786343
v -1.380421 1.675445 0.825359
v -1.380421 1.768394 0.090952
v -1.380421 1.724453 -0.196160
v -1.380421 1.602251 -0.396774
v -1.380421 1.388165 -0.621861
v -1.380421 1.209392 -0.723783
v -1.380421 1.048243 -0.735548
v -1.380421 0.763891 -0.682674
v -1.380421 0.571215 -0.862169
v -1.380421 0.409940 -1.025499
v -1.420308 0.038658 0.664778
v -1.381823 0.175750 0.551906
v -1.381823 0.366701 0.317207
v -1.381823 0.366701 -0.845603
v -1.530584 0.000000 1.071448
v -1.553006 0.135201 1.045705
v -1.553006 0.203917 1.001393
v -1.553006 0.356959 0.952853
v -1.553006 0.576685 0.954293
v -1.551604 0.939428 0.877623
v -1.551604 1.122073 0.786343
v -1.551604 1.251548 0.883195
v -1.551604 1.330642 0.918465
v -1.551604 1.447212 0.945960
v -1.551604 1.582966 0.929416
v -1.551604 1.675445 0.825359
v -1.551604 1.768394 0.090952
v -1.551604 1.724453 -0.196160
v -1.551604 1.602251 -0.396774
v -1.551604 1.388165 -0.621861
v -1.551604 1.209392 -0.723783
v -1.551604 1.048243 -0.735548
v -1.551604 0.763891 -0.682674
v -1.551604 0.571215 -0.862169
v -1.551604 0.409940 -1.025499
v -1.553006 0.038658 0.664778
v -1.553006 0.175750 0.551906
v -1.553006 0.366701 0.317207
v -1.553006 0.366701 -0.845603
v -1.104611 0.203789 1.001416
v -1.066126 0.356831 0.952876
v -1.066126 0.529884 0.930077
v -1.064723 0.892628 0.853406
v -1.064723 1.121945 0.786365
v -1.064723 1.251419 0.883218
v -1.064723 1.330513 0.918488
v -1.064723 1.447084 0.945983
v -1.064723 1.582838 0.929439
v -1.064723 1.675317 0.825382
v -1.064723 1.768265 0.090974
v -1.064723 1.724325 -0.196137
v -1.064723 1.602123 -0.396751
v -1.064723 1.388037 -0.621838
v -1.064723 1.209264 -0.723760
v -1.064723 1.048115 -0.735525
v -1.064723 0.763763 -0.682651
v -1.064723 0.571086 -0.862146
v -1.064723 0.409812 -1.025476
v -1.104611 0.175622 0.551929
v -1.066126 0.366573 0.317230
v -1.066126 0.366573 -0.845580
v -1.301496 0.950053 0.796792
v -1.143647 1.064648 0.763283
v -1.295783 1.060560 0.761601
v -1.148395 0.953439 0.793399
v -1.380505 1.322100 1.676968
v -1.380505 1.451575 1.773820
v -1.380505 1.530668 1.809091
v -1.380505 1.647239 1.836586
v -1.380505 1.782993 1.820042
v -1.380505 1.875472 1.715985
v -1.551688 1.322100 1.676968
v -1.551688 1.451575 1.773820
v -1.551688 1.530668 1.809091
v -1.551688 1.647239 1.836586
v -1.551688 1.782993 1.820042
v -1.551688 1.875472 1.715985
v -1.064808 1.321972 1.579217
v -1.064808 1.451446 1.676069
v -1.064808 1.530540 1.711339
v -1.064808 1.647111 1.738835
v -1.064808 1.782865 1.722290
v -1.064808 1.875344 1.618233
v -0.906744 0.529884 0.930077
v -0.905342 0.763763 -0.682651
v -0.905342 0.892628 0.853406
v -0.905342 1.121945 0.786365
v -0.905342 1.251419 0.883218
v -0.905342 1.330513 0.918488
v -0.905342 1.447084 0.945983
v -0.905342 1.582838 0.929439
v -0.905342 1.675317 0.825382
v -0.905342 1.768265 0.090974
v -0.905342 1.724325 -0.196137
v -0.905342 1.602123 -0.396751
v -0.905342 1.388037 -0.621838
v -0.905342 1.209264 -0.723760
v -0.905342 1.048115 -0.735525
v -1.381823 0.609502 1.109558
v -1.380421 0.972245 1.032888
v -1.553006 0.609502 1.109558
v -1.551604 0.972245 1.032888
vt 0.000000 0.000000
vt 0.000000 0.000000
vt 0.000000 0.000000
vt 0.000000 0.000000
vt 0.000000 0.000000
vt 0.000000 0.000000
vt 0.000000 0.000000
vt 0.000000 0.000000
vt 0.000000 0.000000
vt 0.000000 0.000000
vt 0.000000 0.000000
vt 0.000000 0.000000
vt 0.000000 0.000000
vt 0.000000 0.000000
vt 0.000000 0.000000
vt 0.000000 0.000000
vt 0.000000 0.000000
vt 0.000000 0.000000
vt 0.000000 0.000000
vt 0.000000 0.000000
vt 0.000000 0.000000
vt 0.000000 0.000000
vt 0.000000 0.000000
vt 0.000000 0.000000
vt 0.000000 0.000000
vt 0.000000 0.000000
vt 0.000000 0.000000
vt 0.000000 0.000000
vt 0.000000 0.000000
vt 0.000000 0.000000
vt 0.000000 0.000000
vt 0.000000 0.000000
vt 0.000000 0.000000
vt 0.000000 0.000000
vt 0.000000 0.000000
vt 0.000000 0.000000
vt 0.000000 0.000000
vt 0.000000 0.000000
vt 0.000000 0.000000
vt 0.000000 0.000000
vt 0.000000 0.000000
vt 0.000000 0.000000
vt 0.000000 0.000000
vt 0.000000 0.000000
vt 0.000000 0.000000
vt 0.000000 0.000000
vt 0.000000 0.000000
vt 0.000000 0.000000
vt 0.000000 0.000000
vt 0.000000 0.000000
vt 0.000000 0.000000
vt 0.000000 0.000000
vt 0.000000 0.000000
vt 0.000000 0.000000
vt 0.000000 0.000000
vt 0.000000 0.000000
vt 0.000000 0.000000
vt 0.000000 0.000000
vt 0.000000 0.000000
vt 0.000000 0.000000
vt 0.000000 0.000000
vt 0.000000 0.000000
vt 0.000000 0.000000
vt 0.000000 0.000000
vt 0.000000 0.000000
vt 0.000000 0.000000
vt 0.000000 0.000000
vt 0.000000 0.000000
vt 0.000000 0.000000
vt 0.000000 0.000000
vt 0.000000 0.000000
vt 0.000000 0.000000
vt 0.000000 0.000000
vt 0.000000 0.000000
vt 0.000000 0.000000
vt 0.000000 0.000000
vt 0.000000 0.000000
vt 0.000000 0.000000
vt 0.000000 0.000000
vt 0.000000 0.000000
vt 0.000000 0.000000
vt 0.000000 0.000000
vt 0.000000 0.000000
vt 0.000000 0.000000
vt 0.000000 0.000000
vt 0.000000 0.000000
vt 0.000000 0.000000
vt 0.000000 0.000000
vt 0.000000 0.000000
vt 0.000000 0.000000
vt 0.000000 0.000000
vt 0.000000 0.000000
vt 0.000000 0.000000
vt 0.000000 0.000000
vt 0.000000 0.000000
vt 0.000000 0.000000
vt 0.000000 0.000000
vt 0.000000 0.000000
vt 0.000000 0.000000
vt 0.000000 0.000000
vt 0.000000 0.000000
vt 0.000000 0.000000
vt 0.000000 0.000000
vt 0.000000 0.000000
vt 0.000000 0.000000
vt 0.000000 0.000000
vt 0.000000 0.000000
vt 0.000000 0.000000
vt 0.000000 0.000000
vn 0.0002 0.6356 0.7720
vn 0.9606 -0.2780 -0.0057
vn -1.0000 -0.0007 0.0002
vn -1.0000 0.0001 -0.0001
vn 0.0000 -0.7757 -0.6311
vn 0.0000 0.1870 0.9824
vn 0.0000 0.4953 -0.8687
vn 0.0354 -0.9723 0.2311
vn 0.0000 -1.0000 0.0000
vn 0.0000 0.5419 0.8404
vn 0.0000 0.0728 -0.9973
vn 1.0000 -0.0000 0.0001
vn 0.0000 -0.9723 -0.2337
vn 0.0000 0.3023 0.9532
vn 0.0000 -0.1828 -0.9831
vn 1.0000 -0.0001 0.0001
vn 0.0000 -0.0066 1.0000
vn 0.0000 0.6816 -0.7317
vn 0.0000 0.9921 0.1256
vn 0.0000 -0.9784 0.2068
vn 0.0000 0.7116 -0.7026
vn 0.0000 0.9885 -0.1513
vn 0.0000 0.4470 0.8945
vn 0.0000 -0.9955 -0.0946
vn 0.0000 0.8540 -0.5202
vn 0.0000 0.9757 -0.2191
vn 0.0000 -0.6356 -0.7720
vn 0.0000 0.7246 -0.6892
vn 0.0004 0.9921 0.1256
vn 0.9994 -0.0359 0.0012
vn 0.1051 0.2053 0.9731
vn 0.0003 0.7116 -0.7026
vn 0.0004 0.9885 -0.1513
vn 0.1086 0.8880 0.4468
vn 0.0004 0.8540 -0.5202
vn 0.0003 0.7246 -0.6892
vn -1.0000 -0.0001 -0.0001
vn -0.0003 -0.7757 -0.6311
vn 0.0003 0.4953 -0.8687
vn 0.0000 -0.9757 0.2191
vn -0.0004 -1.0000 0.0000
vn -0.0005 -0.9980 0.0625
vn 0.0001 0.0728 -0.9973
vn -1.0000 -0.0000 -0.0001
vn -0.0004 -0.9723 -0.2337
vn 0.0001 0.3023 0.9532
vn 0.0423 0.0543 0.9976
vn 0.0003 0.6816 -0.7317
vn -0.4360 0.2525 0.8638
vn 0.0767 0.3034 0.9498
vn -0.0002 -0.3734 0.9277
vn 0.4624 -0.8866 0.0012
vn -0.0015 0.2826 0.9592
vn 0.5819 0.3126 0.7508
vn 0.0000 -0.4073 0.9133
vn 0.0000 -0.2296 0.9733
vn 0.0000 0.1210 0.9927
vn 0.0000 0.7475 0.6643
vn 0.0000 -0.5990 0.8008
vn 0.2404 -0.5814 0.7773
vn 0.2720 -0.3919 0.8789
vn 0.2885 -0.2198 0.9319
vn 0.2938 0.1156 0.9488
vn 0.2018 0.7321 0.6506
vn 1.0000 0.0001 0.0001
vn -0.0354 0.9723 -0.2311
vn 1.0000 -0.0007 0.0001
vn 0.0000 0.2068 0.9784
vn 0.0000 -0.9896 -0.1435
vn 0.0000 0.2806 0.9598
vn 0.9553 -0.1772 0.2368
vn -0.9804 -0.0919 -0.1740
vn -0.9767 0.0493 -0.2089
vn 0.9706 -0.0981 0.2200
vn 0.0000 0.9696 -0.2446
vn -0.0321 0.6954 -0.7179
vn 0.8935 -0.4472 -0.0410
vn -0.2501 0.3493 0.9030
vn 0.0000 0.1306 0.9914
vn 1.0000 -0.0037 0.0008
vn 0.0000 0.9784 -0.2068
vn -1.0000 0.0037 -0.0008
usemtl Material.006
s off
f 177/110/83 130/111/83 129/112/83
f 113/113/84 112/114/84 129/112/84 130/111/84 114/115/84
f 134/116/85 135/117/85 136/118/85 137/119/85 138/120/85 139/121/85 140/122/85 141/123/85 142/124/85 143/125/85 144/126/85 145/127/85 146/128/85 147/129/85 148/130/85 149/131/85 150/132/85 151/133/85 152/134/85 153/135/85 157/136/85 156/137/85 155/138/85 154/139/85 133/140/85
f 139/121/86 190/141/86 191/142/86 140/122/86
f 130/111/87 155/138/87 156/137/87 131/143/87
f 113/113/88 134/116/88 133/140/88 112/114/88
f 124/144/89 149/131/89 148/130/89 123/145/89
f 162/146/90 196/147/90 184/148/90 118/149/90
f 131/143/91 156/137/91 157/136/91 132/150/91
f 114/115/92 135/117/92 134/116/92 113/113/92
f 125/151/93 150/132/93 149/131/93 124/144/93
f 165/152/94 199/153/94 198/154/94 164/155/94
f 132/150/95 157/136/95 153/135/95 128/156/95
f 115/157/96 136/118/96 135/117/96 114/115/96
f 126/158/97 151/133/97 150/132/97 125/151/97
f 164/155/98 198/154/98 197/159/98 163/160/98
f 116/161/99 137/119/99 136/118/99 115/157/99
f 127/162/100 152/134/100 151/133/100 126/158/100
f 120/163/101 145/127/101 144/126/101 119/164/101
f 116/161/102 217/165/102 219/166/102 137/119/102
f 128/156/103 153/135/103 152/134/103 127/162/103
f 121/167/104 146/128/104 145/127/104 120/163/104
f 118/149/105 139/121/105 138/120/105 117/168/105
f 112/114/106 133/140/106 154/139/106 129/112/106
f 122/169/107 147/129/107 146/128/107 121/167/107
f 144/126/108 195/170/108 189/171/108 119/164/108
f 129/112/109 154/139/109 155/138/109 130/111/109
f 123/145/110 148/130/110 147/129/110 122/169/110
f 119/164/111 167/172/111 168/173/111 120/163/111
f 177/110/112 178/174/112 179/175/112 176/176/112 175/177/112 174/178/112 160/179/112 159/180/112 158/181/112
f 116/161/113 160/179/113 161/182/113 117/168/113
f 127/162/114 175/177/114 176/176/114 128/156/114
f 120/163/115 168/173/115 169/183/115 121/167/115
f 117/168/116 161/182/116 183/184/116 180/185/116
f 121/167/117 169/183/117 170/186/117 122/169/117
f 163/160/98 197/159/98 196/147/98 162/146/98
f 122/169/118 170/186/118 171/187/118 123/145/118
f 143/125/119 194/188/119 195/170/119 144/126/119
f 131/143/120 178/174/120 177/110/120 130/111/120
f 123/145/121 171/187/121 172/189/121 124/144/121
f 118/149/122 184/148/122 190/141/122 139/121/122
f 132/150/123 179/175/123 178/174/123 131/143/123
f 130/111/124 177/110/124 158/181/124 114/115/124
f 124/144/125 172/189/125 173/190/125 125/151/125
f 142/124/126 193/191/126 194/188/126 143/125/126
f 128/156/127 176/176/127 179/175/127 132/150/127
f 114/115/128 158/181/128 159/180/128 115/157/128
f 125/151/97 173/190/97 174/178/97 126/158/97
f 141/123/126 192/192/126 193/191/126 142/124/126
f 115/157/129 159/180/129 160/179/129 116/161/129
f 126/158/130 174/178/130 175/177/130 127/162/130
f 161/182/131 162/146/131 181/193/131 183/184/131
f 158/181/132 114/115/132 113/113/132 112/114/132
f 162/146/133 118/149/133 182/194/133 181/193/133
f 167/172/101 210/195/101 211/196/101 168/173/101
f 177/110/134 158/181/134 112/114/134 129/112/134
f 182/194/135 180/185/135 183/184/135 181/193/135
f 182/194/136 118/149/136 117/168/136 180/185/136
f 186/197/137 192/192/137 191/142/137 185/198/137
f 187/199/138 193/191/138 192/192/138 186/197/138
f 188/200/139 194/188/139 193/191/139 187/199/139
f 189/171/140 195/170/140 194/188/140 188/200/140
f 185/198/141 191/142/141 190/141/141 184/148/141
f 184/148/142 196/147/142 197/159/142 185/198/142
f 185/198/143 197/159/143 198/154/143 186/197/143
f 186/197/144 198/154/144 199/153/144 187/199/144
f 187/199/145 199/153/145 200/201/145 188/200/145
f 188/200/146 200/201/146 201/202/146 189/171/146
f 166/203/94 200/201/94 199/153/94 165/152/94
f 140/122/126 191/142/126 192/192/126 141/123/126
f 167/172/147 201/202/147 200/201/147 166/203/147
f 119/164/148 189/171/148 201/202/148 167/172/148
f 203/204/149 216/205/149 215/206/149 214/207/149 213/208/149 212/209/149 211/196/149 210/195/149 209/210/149 208/211/149 207/212/149 206/213/149 205/214/149 204/215/149 202/216/149
f 160/179/150 202/216/150 204/215/150 161/182/150
f 174/178/151 203/204/151 202/216/151 160/179/151
f 168/173/104 211/196/104 212/209/104 169/183/104
f 161/182/152 204/215/152 205/214/152 162/146/152
f 169/183/107 212/209/107 213/208/107 170/186/107
f 162/146/141 205/214/141 206/213/141 163/160/141
f 170/186/110 213/208/110 214/207/110 171/187/110
f 163/160/137 206/213/137 207/212/137 164/155/137
f 171/187/89 214/207/89 215/206/89 172/189/89
f 164/155/138 207/212/138 208/211/138 165/152/138
f 172/189/93 215/206/93 216/205/93 173/190/93
f 165/152/139 208/211/139 209/210/139 166/203/139
f 173/190/97 216/205/97 203/204/97 174/178/97
f 166/203/140 209/210/140 210/195/140 167/172/140
f 206/213/153 197/159/153 196/147/153 205/214/153
f 199/153/154 200/201/154 201/202/154 210/195/154 209/210/154 208/211/154
f 199/153/155 208/211/155 207/212/155 198/154/155
f 207/212/156 198/154/156 197/159/156 206/213/156
f 162/146/157 196/147/157 205/214/157
f 203/204/158 176/176/158 175/177/158 174/178/158
f 178/174/159 179/175/159 176/176/159 203/204/159 202/216/159
f 202/216/160 159/180/160 158/181/160
f 202/216/161 160/179/161 159/180/161
f 218/217/150 220/218/150 219/166/150 217/165/150
f 117/168/162 218/217/162 217/165/162 116/161/162
f 138/120/163 220/218/163 218/217/163 117/168/163
f 137/119/164 219/166/164 220/218/164 138/120/164
